<svg t="1715323929951" class="icon" viewBox="0 0 1024 1024" version="1.1" xmlns="http://www.w3.org/2000/svg" p-id="4240" width="32" height="32"><path d="M512 554.752A661.76 661.76 0 0 1 42.688 361.216a25.6 25.6 0 1 1 36.096-36.352c115.904 115.2 269.76 178.688 433.152 178.688s317.312-63.488 433.216-178.688a25.6 25.6 0 1 1 36.096 36.352 661.568 661.568 0 0 1-469.312 193.536z" p-id="4241"></path><path d="M362.304 706.56a25.728 25.728 0 0 1-25.28-30.016l28.416-163.328a25.664 25.664 0 0 1 50.496 8.768l-28.416 163.328a25.6 25.6 0 0 1-25.216 21.184zM674.688 704a25.536 25.536 0 0 1-25.088-20.736l-31.104-160.768a25.6 25.6 0 0 1 50.24-9.728l31.104 160.768a25.6 25.6 0 0 1-25.152 30.464zM80.192 596.352a25.6 25.6 0 0 1-20.928-40.256l94.848-135.936a25.6 25.6 0 1 1 41.984 29.312L101.248 585.408a25.664 25.664 0 0 1-21.056 10.944zM942.848 596.352a25.6 25.6 0 0 1-20.992-10.944l-94.848-135.936a25.6 25.6 0 0 1 41.984-29.312l94.848 135.936a25.6 25.6 0 0 1-20.992 40.256z" p-id="4242"></path></svg>